<?xml version="1.0" encoding="UTF-8"?>
<svg id="Layer_1" data-name="Layer 1" xmlns="http://www.w3.org/2000/svg" version="1.1" viewBox="0 0 955 275">
  <defs>
    <style>
      .cls-1 {
        fill: #000;
        stroke-width: 0px;
      }
    </style>
  </defs>
  <g id="cXqCgY.tif">
    <g>
      <path class="cls-1" d="M673.2,135.3c-18.6,0-37.1,0-55.7,0-4.3,0-5.2,1-4.7,5.2.5,4.5,2.9,7.9,6.4,10.6,6.3,5,13.9,7.2,21.7,8.3,18,2.5,35.8,1.1,52.7-5.9,5.6-2.3,10.7-5.7,16-8.7,5.9-3.4,12-6.4,18.9-6.5,12,0,21.8,5.4,24.2,19.1,1.7,9.8-1.5,18.2-7.7,25.7-9.5,11.5-22.4,17.3-36.6,20.4-21.1,4.6-41.8,3.6-61.3-6.5-21.5-11.2-33.9-29.1-37.5-53.1-2.3-15.6,0-30.6,7.1-44.6,7.9-15.7,20.3-26.8,36.7-33.3,11.9-4.7,24.2-6.2,37-5.3,12,.8,23.4,3.3,34,9,12.9,6.9,22.2,17,26.7,31.2,1.9,6,2.4,12.2,2,18.5-.6,8.4-5.2,13.2-13.7,14.7-3.7.7-7.4,1.1-11.2,1.1-18.3.1-36.6,0-55,0ZM674.9,131.2h0c18.8,0,37.6,0,56.4-.1,3.8,0,7.9-.8,11.4-2.2,6.2-2.5,7-9.1,2.4-13.9-2.7-2.8-6.2-4.1-9.8-5.1-8.4-2.5-17.1-2.8-25.7-2.9-16.4-.2-32.8-.2-49.2,0-6.5,0-12.9.7-19.4,1.5-6.8.8-13.4,2.5-19.5,5.9-4.4,2.5-7.9,5.9-8.7,11.2-.7,4.3.5,5.6,4.9,5.6,19.1,0,38.1,0,57.2,0Z"/>
      <path class="cls-1" d="M321.7,140.7c0-18,.4-36.1-.1-54.1-.4-14.9,9.4-24.9,24.2-25.1,14-.2,28-.2,42-.1,10.4,0,20.8,0,31.2.5,12.1.7,23.7,3.5,33.7,10.9,15.8,11.7,16.2,33.7,7,46.5-5.6,7.8-13.7,12.2-23,13.8-7,1.2-14.2,1.6-21.3,1.7-13.6.2-27.1,0-40.7,0-.9,0-1.8.2-2.7.4-1.6.3-2.3,1.3-2,2.9,3.8,16.8,17.7,26.5,33.8,20.9,5.6-1.9,9.5-6.3,13.9-10,3.6-2.9,7.2-6.1,11.3-8.1,14.5-7,33.3-.2,36.3,19,3.5,22.7-13.9,43.4-37,44.8-16,1-28.1-5.6-38.2-17.3-9.2-10.8-15.1-23.4-19.9-36.6-1.5-4.2-3.1-8.4-4.5-12.7-.7-2-2-2.9-4.1-2.9-10.7,0-21.5,0-32.2,0-3.1,0-3.9,1-3.9,4.4,0,12.6,0,25.3,0,37.9,0,7.1,0,14.1,0,21.2,0,.8,0,1.7-.2,2.5-.2.6-1,1.2-1.6,1.2-.6,0-1.4-.6-1.6-1.2-.3-.9-.2-2-.2-3,0-19.2,0-38.4,0-57.6ZM376.8,131.2h0c15.2,0,30.3.1,45.5-.1,4.7,0,9.4-.9,14-2,3.8-.9,7.5-2.7,8.7-7,1.6-5.6-1.1-10.3-7.2-12.6-6-2.3-12.4-2.4-18.7-2.5-26.8-.1-53.6,0-80.4,0-1.8,0-3.7.2-5.5.4-4.2.6-6.8,2.8-7.3,7-.5,4-.4,8.1-.5,12.2,0,3.9.8,4.7,4.7,4.7,15.6,0,31.1,0,46.7,0Z"/>
      <path class="cls-1" d="M117.6,106.9c-12,0-24-.2-36,0-9,.2-18,.3-26.7,2.9-3.7,1.1-7.4,2.7-10.8,4.5-13.4,7.3-14.2,30.2,1.1,38.3,6.5,3.5,13.5,5.3,20.8,5.8,8.7.6,17.4.9,26.2,1,20.9.1,41.8,0,62.7.1,8.8,0,15.8,4,20,11.9,7.8,14.6-2,32.3-18.6,33-15,.6-30,.6-44.9.4-11.1-.1-22.1-1.4-32.7-5-15.7-5.4-28.7-14.3-37.6-28.6-6.3-10-9.4-21-10.2-32.7-.8-11,.5-21.8,4.5-32.1,7.5-19.5,21.8-32.3,41.2-39.4,9.4-3.5,19.3-5.3,29.3-5.4,15.3-.2,30.6-.4,45.9-.4,6.4,0,12.5,1.5,17.7,5.6,7.7,6.1,10.2,19.1,5.4,27.7-4.6,8.1-11.7,12-20.9,12.1-12.2.1-24.3,0-36.5,0h0Z"/>
      <path class="cls-1" d="M752,182.9c-.3-8,3.1-13.9,8.1-18.8,7.2-7.1,14.9-13.8,22.4-20.6,7.8-7.2,15.5-14.3,23.2-21.5,2.3-2.2,2.3-3.5,0-5.6-9.9-9.3-19.8-18.5-29.7-27.8-3.2-3-6.4-6-9.6-9-3.7-3.5-7.5-7.1-11.2-10.7-.5-.5-1.2-.9-1.3-1.5-.3-.9-.2-1.9-.2-2.9.9,0,2.1-.2,2.7.2,1.8,1.2,3.4,2.7,4.9,4.2,10.5,9.9,21,19.9,31.5,29.9,5.1,4.9,10.3,9.7,15.5,14.5,2.9,2.7,4.3,2.7,7.2,0,13.7-12.5,27.4-25,41-37.6,4.8-4.4,9.4-8.9,15.4-11.7,9.1-4.3,20.1-2.2,26.5,5.1,6.8,7.9,7.9,19.2,2,27.5-2.7,3.9-6.1,7.4-9.6,10.7-7,6.7-14.2,13-21.3,19.5-5.9,5.4-11.8,10.8-17.6,16.2-.7.6-1.4,1.2-2,1.9-1.7,1.9-1.5,3.8.3,5.5,10.8,10.1,21.6,20.3,32.4,30.4,6.1,5.7,12.1,11.4,18.2,17.1,1.2,1.1,3.3,2.5,1.5,4.3-1.5,1.6-3-.2-4.2-1.3-10-9.4-19.9-18.9-29.9-28.3-7-6.6-14-13-21-19.6-2.3-2.1-3.5-2.2-5.8-.2-7.8,7.1-15.6,14.3-23.4,21.4-8.9,8.1-17.8,16.3-26.9,24.2-3.8,3.3-8.3,5.6-13.4,6.2-13.9,1.8-25.5-8.4-25.5-21.7Z"/>
      <path class="cls-1" d="M542.2,61.4c16.6,0,33.1,0,49.7,0,3.4,0,6.9.4,10.1,1.4,10,2.8,16.5,11.9,16.2,22-.4,10.7-7.5,19.3-17.9,21.4-1.9.4-3.8.6-5.7.6-12.2,0-24.5,0-36.7,0-.9,0-1.8,0-2.7,0-8.1.5-11.2,3.6-11.2,11.8,0,6.7,0,13.5,0,20.2,0,19.7,0,39.4,0,59.1,0,1.6.9,4.4-1.7,4.4-2.9,0-1.8-2.9-1.8-4.5,0-25.4,0-50.9,0-76.3,0-.9,0-1.8,0-2.7,0-8.5-3.3-11.8-11.8-11.9-11.9,0-23.8,0-35.7,0-2.7,0-5.5,0-8.2-.5-9.5-1.7-19.4-9.6-18.3-24.7.8-10.1,9.4-19.1,20.4-19.8,7.7-.5,15.5-.5,23.2-.5,10.8,0,21.7,0,32.5,0Z"/>
      <path class="cls-1" d="M244.1,208.8c-23.3-.3-41.7-8.1-56.5-23.8-11.7-12.4-18.4-27.3-19.8-44.5-2-25,6.5-46,25-62.7,12.9-11.7,28.4-17.9,46-18.6,18.2-.8,34.4,4.4,49,15.1,1,.7,2.6,1,3.8.8,2.9-.6,5.4-.2,7.6,1.8,2.3,2.1,2.7,4.8,1.9,7.6-.5,1.7-.2,2.8.8,4.1,8.9,11.7,14,24.8,15.1,39.5,1.6,20.9-4.6,39.2-18.3,55-14.8,17.1-33.9,25.1-54.6,25.7ZM242.4,205c2.2,0,4.5.2,6.7,0,19.2-2.1,35.2-10.3,47.8-25.1,10.7-12.6,16.2-27.2,16.8-43.6.6-16.7-4.4-31.8-14.3-45.3-1-1.4-2-1.8-3.8-1.4-5.4,1.2-10.1-3.4-8.9-8.8.4-1.9-.1-2.9-1.6-3.9-14.2-10.5-30.1-15.2-47.8-14-20,1.4-36.5,9.8-49.4,24.9-13.1,15.3-18.6,33.3-16.6,53.5,1.5,15.6,7.6,29.3,18.2,40.7,14.2,15.3,31.8,23.1,52.8,23Z"/>
      <path class="cls-1" d="M219.8,133.7c0-12.6,10.1-22.6,22.8-22.5,12.5,0,22.4,10.3,22.4,23,0,12.4-10.1,22.6-22.7,22.4-13.2-.2-22.8-10.8-22.4-22.9Z"/>
    </g>
  </g>
</svg>