<?xml version="1.0" encoding="utf-8"?>
<!-- Generator: Adobe Illustrator 24.2.3, SVG Export Plug-In . SVG Version: 6.00 Build 0)  -->
<svg version="1.1" id="Layer_1" xmlns="http://www.w3.org/2000/svg" xmlns:xlink="http://www.w3.org/1999/xlink" x="0px" y="0px"
	 viewBox="0 0 432 146.2" style="enable-background:new 0 0 432 146.2;" xml:space="preserve">
<style type="text/css">
	.st0{fill:none;}
	.st1{font-family:'AvenirNext-Regular';}
	.st2{font-size:30.2883px;}
</style>
<g>
	<g>
		<g>
			<path d="M242.3,90.1c1.5-2,1.8-4,2.7-6c0.2-0.7,0.2-1.2,0.7-1.8c0.5-0.7,0.7-2,1.8-1.8c1.2,0.2,1,1.5,1.2,2.4c1,4,0.7,7.9-1,11.8
				c1.5,0.2,1.7,0.8,1.2,2c-0.5,1.2-1,2.4-1.5,3.5c-1.5,4.2-7.9,5-10.7,3.2c-3.9-2.2-7.9-4.5-10.2-8.7c-1.3-2.4-1.3-5-1.2-7.6
				c0.2-2.5-0.2-4.4-2.2-5.7c-0.3-0.2-0.5-0.7-1-1.3c-1.7,5-1.7,10.2-2,15.4c-0.3,3.5-0.7,6.9-0.2,10.4c0.2,2-0.8,2.7-2.9,2
				c-0.7-0.2-1.2-0.3-1.8-0.5c-3.5-1-4-2-4.9-5.5c-1.2-5-1.2-10.2-1.8-15.4c-0.2-0.7-0.2-1.3-0.7-2c-1.7,2.4-3.4,4.7-5.5,6.7
				c-5.7,5.4-12.6,8.7-19.3,12.3c-2.5,1.3-4.9,2.9-7.6,3.7c-0.7,0.2-1.3,0.5-1.8,0c-2-1.8-4.5-2.9-6.5-4.9c-0.7-0.8-1-2-0.3-2.5
				c3-2.7,1.2-6.2,1.3-9.2c0.2-2-0.2-4-0.2-6c0-0.7-0.2-1.3,0.7-1.7c1-0.2,0.8,0.8,1.7,1.3c-0.2-4.4,0.5-8.6-2.5-12.1
				c-0.5-0.7-1.2-1.3-0.5-2.2c2.5-3,1.2-6.2,0.8-9.6c-0.2-1.2-0.3-2-0.2-3c0.2-2.2-0.7-3.7-2.2-5.4c-2.9-2.9-2.5-5.2,1.2-6.7
				c4.2-1.7,8.6-2.9,13.1-1.8c3,0.7,5.4,2,6.5,5c0.7,1.8,1.7,3.5,2.9,5.2c1.7,2.5,1.2,5.2,0.3,7.7c-0.2,0.5-0.2,0.8-0.5,1.7
				c6.4,1.5,13.3,2.2,16.8,8.9c-2.5-11.9-5.7-24-7.1-36.3c0.7-0.5,1.2-0.2,1.7,0.2c3.9,2.5,6.7,5.5,7.6,10.4
				c1.3,7.7,2.7,15.8,5.7,23.7c0.7-4,1.7-7.6,2-11.3c0.5-6.7,2.5-12.9,3.9-19.3c0.5-2.2,1-4.5,1.7-6.7c0.7-2.5,3-4.2,3.7-6.5
				c0.2-0.2,1.7-1.2,2.9-0.7c1.2,0.7,2.4,1.7,2,3.2c-2,7.1-2.5,14.4-3.7,21.8c-0.8,4.7-1.2,9.6-2.4,14.3c-0.8,3.7-0.8,7.1-1.7,10.7
				c3.9-1.3,4.5-4.2,4.9-7.7c0.5-4.4,1.2-8.6,2.4-12.9c1.2-3.9,1.5-8.1,3-11.8c1.2-3.2,2-6.5,3.9-9.4c2.7-3.9,5.2-3.7,7.6,0.7
				c1.3,2.7,2.5,5.5,3.5,8.2c0.5,1.2,1,2.9-0.2,3.7c-1.5,1.2-2-1-3-1.5c-0.5-0.2-0.5-1-1.7-1.2c-4,6.9-4.4,14.9-6.7,22.7
				c2.5,0.2,4-1.7,5.9-2.4c1.3-0.7,2.7-1.3,4-2c1.2-0.7,2-0.2,2,1c0,2.4,1.5,4.2,2,6.2c0.2,1.3,0.2,2.2-0.8,3.2
				c-3.2,3.4-7.2,5.5-11.1,7.9c-3.4,2-4,4.5-4.4,7.7c-0.2,0.5-0.2,1.2,0,1.7c0.2,1.3-0.7,3.4,1.2,4c2,0.7,4,0.2,5.7-1.2
				C240.9,92.1,241.4,91.1,242.3,90.1z M179.5,76.5c-1.7,0.7-2,2.2-2,3.7c0,1.2,0.2,2.5-0.2,3.5c-0.7,1.3-1.5,2.4-0.5,4
				c0.5,0.7-0.2,1.7-0.5,2.4c-0.7,1.2-0.2,2.4,0.7,3.4c0.7,0.7,1.5,0.2,2-0.2c7.1-3.7,14.3-7.2,19.8-13.3c1.2-1.3,2.7-2.9,2-4.5
				s-2.9-1.5-4.4-1.8c-0.2,0-0.3,0-0.5,0C190.4,73.3,185,74.5,179.5,76.5z M176.6,60.7c0.2,0.2,0.5,0.2,0.7,0.2
				c2-1.7,3.4-3.9,4.4-6.2c-5-0.7-6.5,0.7-5.4,5.2C176.3,60.1,176.3,60.2,176.6,60.7z"/>
			<path d="M272.6,61.6c-5.7,2.5-5.5,2.5-1.7,6.9c3,3.2,5.7,6.7,8.6,9.9c1,1.2,1.7,2.9,3.9,1.7c0.7-0.3,1.2,0.7,1.3,1.5
				c0.7,3.9,2.4,7.2,3.9,10.6c0.7,1.7,2,3.5,0.2,4.7c-1.7,1.3-2.7-1-3.9-1.8c-3.5-2.4-4.5-6.4-7.1-9.4c-4.7-5.4-9.1-10.7-14.1-16.8
				c-0.2,2.2-0.7,3.7-0.7,5.2s0.3,3.4-1.2,4.5c-0.2,0.2-0.2,0.5-0.2,0.7c0.7,3.5-1.2,6.9-0.7,10.4c0.2,1.3,0.7,3.2-1.2,3.9
				c-1.2,0.3-4.4-1.7-4.9-3c-2.5-5.5-3.4-11.4-4.2-17.3c-0.5-3.5-0.5-7.1-0.5-10.6c0.2-2.5,1.2-4.9,1.3-7.4c0.2-2.2,2.2-2.7,4-3.2
				c0.5-1.3,0.2-2.7-0.2-4c-0.8-3.9-1.2-8.1-2.4-11.9c-0.3-1.7-1.2-3.7,1.8-3.9c0.5,0,0.7-0.7,0.8-1.2c1.2-2.7,2.5-3.2,5.5-2.4
				c4.5,1.2,8.9,2.7,11.8,7.6c0.2-1.5-0.7-1.8-1.2-2.4c-1.3-1.7-2-3.5-1.2-5.5c0.7-2,2.5-2.4,4.4-2.7c6-1.2,12.1-2.2,18-3.4
				c5.2-1.2,10.6-2,15.8-3.4c4.2-1.2,8.6-1.3,12.4-3.7c1.8-1.2,3.7-0.2,3.9,2c0.3,2.9,0.5,6,1,8.9c0.2,1.7-0.5,2.9-2.5,2.7
				c-2.7-0.2-5.2,0.5-7.9,1.2c-6.9,1.7-13.9,2.7-20.7,4.5c0.7,18.3,2.9,36.3-0.2,54.6c-1.2-0.7-2.7-0.3-3.9-1.3
				c-3.5-2.4-5.2-7.6-3.5-11.6c0.8-2,1.2-4.2,1.2-6.2c0.5-10.6-0.7-21.3-1-31.9c0-1.7-0.7-2.4-2.5-1.8c-2.5,0.7-5,0.8-7.6,2
				c-1.2,0.7-2.9,0.7-3.9-0.7c1.3,2.9,2.5,6,4,8.7c2.5,4.5,0.3,8.1-2,11.6C275.3,59.6,274.3,60.7,272.6,61.6z M272,45.3
				c0-2.9-0.5-3.5-4.4-5c-3-1.2-5.7,0.2-5.7,3.2c-0.2,3.7,1.7,7.1,1.7,11.1C267.9,52.5,270.6,49.7,272,45.3z M254.8,74.7
				c0,0.8,0.2,1.7,1.2,2.5c0-4.5-0.2-8.6,0-12.6c0-1.8-0.8-2.9-2.7-4.2C254.3,65.6,254.3,70,254.8,74.7z"/>
			<path d="M125.9,39.4c4.9,1.5,7.1,4.9,8.2,9.7c1.5,6.7,1.7,13.6,1.8,20.3c0,1.8-0.2,3.7-0.5,5.5c-0.2,0.7,0,1.5-1,1.7
				c-0.8,0.2-1.7,0.2-2.2-0.7c-1.7-1.7-2.4-4-2.4-6.2c-0.2-5.4,0.2-10.6-0.3-16c-0.2-2.9-1.8-3.9-4.7-2.5c-2.4,1.2-3.9,2.7-4.9,5
				c-2,3.9-3.9,7.7-3.9,12.4c0,2.2,0.8,3.5,2.5,4.7c3.7,2.7,8.1,3.7,12.3,5.9c4.9,2.4,9.6,4.7,13.3,8.9c2.7,2.9,5,13.9,2.5,16.8
				c-3,3.4-6.5,6.2-10.7,8.4c-3.7,1.8-7.6,3-11.8,3.9c-3.2,0.7-5.7-0.7-7.6-2.9c-0.7-0.8-1.5-2-2.4-2.7c-3-2.4-3.9-5.5-4.4-9.2
				c-0.3-4.5,1.7-9.9,4.9-11.9c1.5,1.8,3,3.5,4.4,5.4c0.7,1,0.2,2-0.2,2.9c-0.7,1.7-1.2,3.2-1.2,5c-0.2,2,0.8,2.5,2.5,2.4
				c7.6-0.5,14.1-2.9,19.5-8.2c2-2,1.7-3.9-0.7-5.5c-3-2.2-6.7-3.7-10.2-4.5c-10.1-3-16-10.4-19.3-19.5c-1.8-5.2-1.5-11.1,1.3-16.3
				c2-3.9,4.2-7.7,8.1-10.1C120.8,40.2,123,39.1,125.9,39.4z"/>
			<path d="M156.4,76.7c-0.3-7.2-0.7-14.3-1.2-21.5c0-0.8-0.2-1.7,0.2-2.4c0.3-1.2-0.3-3.2,2-3.2c2.2,0,3.9,1.5,4.2,3.2
				c0.7,5.9,1.7,11.6,2.2,17.5c0.5,7.6,0.5,14.9,0.3,22.3c-0.2,6.2-0.5,12.3-0.3,18.3c0.2,4.7-1.5,5.9-5.9,4.2
				c-4-1.5-6.7-4.2-7.6-8.6c-1.5-7.7-2.5-15.4-4.4-23.2c-1.8-8.6-2.4-17.1-2.7-25.9c-0.2-2.4-0.2-4.7-0.7-7.1
				c-0.2-1.3,0.2-2.4,1-3.2c1.5-1.8,3.4-1.7,3.9,0.7c0.7,3.2,3.7,5.5,3.5,8.9c-0.2,6,1,11.9,1.2,17.8c0.2,6,1.3,11.9,2.5,18
				c0.5,2.7-0.2,5.4,0.3,8.1c0.2,0.7-0.2,1.5,0.7,2C155.3,94,155.6,85.4,156.4,76.7z"/>
		</g>
	</g>
	<rect x="167.9" y="112.3" class="st0" width="108.1" height="33.9"/>
	<text transform="matrix(1.0135 0 0 1 167.8577 135.1489)" class="st1 st2">gallery</text>
	<rect x="226.5" y="55.7" class="st0" width="21.2" height="0.7"/>
	<rect x="192.9" y="66.4" class="st0" width="11.6" height="2.5"/>
</g>
</svg>
