<?xml version="1.0" encoding="utf-8"?>
<!-- Generator: Adobe Illustrator 24.2.3, SVG Export Plug-In . SVG Version: 6.00 Build 0)  -->
<svg version="1.1" id="Layer_1" xmlns="http://www.w3.org/2000/svg" xmlns:xlink="http://www.w3.org/1999/xlink" x="0px" y="0px"
	 viewBox="0 0 432 216" style="enable-background:new 0 0 432 216;" xml:space="preserve">
<style type="text/css">
	.st0{fill:none;}
	.st1{font-family:'AvenirNext-Regular';}
	.st2{font-size:49.2484px;}
</style>
<g>
	<g>
		<g>
			<path d="M256.2,125.3c2.4-3.2,3-6.5,4.4-9.7c0.4-1,0.4-2,1-3c0.8-1.2,1-3.3,3-3c1.8,0.4,1.6,2.4,2,3.7c1.6,6.5,1,12.8-1.6,19.1
				c2.4,0.2,2.8,1.4,2,3.2c-0.8,2-1.6,3.7-2.4,5.7c-2.4,6.7-12.8,8.1-17.6,5.3c-6.4-3.5-12.8-7.5-16.6-14.2
				c-2.2-3.9-2.2-8.3-1.8-12.4c0.4-4.1-0.2-7.1-3.6-9.3c-0.6-0.4-0.8-1.2-1.6-2.2c-2.6,8.3-2.6,16.7-3.4,25.2
				c-0.6,5.7-1.2,11.2-0.4,16.9c0.4,3.3-1.4,4.3-4.6,3.3c-1-0.4-2-0.6-3-0.8c-5.6-1.6-6.6-3.3-7.8-9.1c-1.8-8.3-1.8-16.7-3-25
				c-0.2-1-0.2-2.2-1.2-3.3c-2.6,3.9-5.4,7.7-9,11c-9.2,8.7-20.4,14.2-31.5,19.9c-4,2.2-7.8,4.7-12.2,5.9c-1,0.2-2.2,0.8-3,0
				c-3.4-3-7.4-4.7-10.6-7.9c-1.2-1.4-1.6-3.2-0.6-4.1c4.8-4.5,1.8-10,2.2-15c0.2-3.2-0.2-6.5-0.2-9.7c0-1-0.2-2.2,1.2-2.6
				c1.6-0.4,1.4,1.4,2.6,2.2c-0.4-7.1,0.8-13.8-4.2-19.7c-0.8-1-1.8-2.2-0.8-3.5c4.2-4.9,2-10.2,1.4-15.6c-0.2-1.8-0.6-3.3-0.4-4.9
				c0.2-3.5-1-6.1-3.6-8.7c-4.6-4.7-4.2-8.5,2-10.8c6.8-2.6,14-4.7,21.4-3c4.8,1.2,8.8,3.2,10.6,8.1c1.2,3,2.8,5.7,4.6,8.5
				c2.8,4.1,1.8,8.5,0.6,12.6c-0.2,0.8-0.4,1.4-0.8,2.6c10.4,2.4,21.6,3.5,27.2,14.6c-4.2-19.5-9.2-39-11.4-59.1
				c1-0.8,1.8-0.2,2.6,0.2c6.2,4.1,10.8,9.1,12.2,16.9c2.2,12.6,4.4,25.6,9.2,38.4c1.2-6.5,2.8-12.4,3.4-18.3
				c0.8-10.8,4-21.1,6.4-31.3c0.8-3.5,1.6-7.3,2.6-10.8c1.2-4.1,4.8-6.7,6-10.6c0.2-0.4,2.8-1.8,4.6-1c2,1,3.8,2.8,3.2,5.1
				c-3.2,11.6-4,23.6-6,35.5c-1.4,7.7-2,15.6-3.8,23.2c-1.4,5.9-1.4,11.6-2.6,17.5c6.4-2.2,7.4-6.9,7.8-12.6
				c0.8-7.1,1.8-14,3.8-20.9c1.8-6.3,2.4-13,4.8-19.1c2-5.1,3.2-10.6,6.4-15.4c4.4-6.3,8.6-5.9,12.2,1c2.2,4.3,4,8.9,5.8,13.4
				c0.8,2,1.6,4.7-0.4,6.1c-2.4,2-3.2-1.6-5-2.4c-0.8-0.4-0.8-1.6-2.8-1.8c-6.6,11.2-7.2,24.2-10.8,36.8c4.2,0.2,6.6-2.8,9.6-3.9
				c2.2-1,4.4-2.2,6.6-3.3c2-1.2,3.4-0.4,3.4,1.6c0,3.7,2.4,6.7,3.2,10.2c0.4,2.2,0.2,3.5-1.4,5.1c-5.2,5.5-11.8,9.1-18,12.8
				c-5.4,3.2-6.6,7.5-7.2,12.6c-0.2,0.8-0.2,1.8,0,2.8c0.4,2.2-1.2,5.5,2,6.5c3.2,1,6.6,0.2,9.2-2C254,128.5,255,126.9,256.2,125.3z
				 M154.2,103.3c-2.6,1.2-3.2,3.5-3.2,6.1c0,2,0.4,4.1-0.4,5.7c-1,2.2-2.4,3.9-0.8,6.5c0.8,1.2-0.2,2.8-0.8,3.9c-1,2-0.2,3.7,1,5.5
				c1,1.2,2.4,0.2,3.2-0.2c11.4-6.1,23.2-11.8,32.1-21.7c1.8-2.2,4.4-4.7,3.4-7.5c-1-2.6-4.6-2.4-7.2-3c-0.2,0-0.6,0-0.8,0
				C171.8,98,163.2,99.9,154.2,103.3z M149.4,77.5c0.4,0.2,0.8,0.4,1,0.4c3.2-2.8,5.4-6.3,7.2-10.2c-8.2-1.2-10.6,1.2-8.8,8.5
				C148.8,76.3,149,76.7,149.4,77.5z"/>
			<path d="M305.7,78.9c-9.2,4.1-9,4.1-2.8,11.2c4.8,5.3,9.2,10.8,14,16.2c1.6,1.8,2.8,4.7,6.4,2.6c1.2-0.6,2,1,2.2,2.4
				c1,6.3,3.8,11.8,6.2,17.3c1,2.6,3.2,5.7,0.4,7.7c-2.8,2.2-4.4-1.6-6.4-3c-5.6-3.9-7.4-10.4-11.6-15.4c-7.6-8.7-14.8-17.5-23-27.2
				c-0.4,3.5-1,5.9-1.2,8.5s0.6,5.5-2,7.5c-0.2,0.2-0.4,0.8-0.4,1.2c1.2,5.7-1.8,11.2-1,16.9c0.4,2.2,1.2,5.1-2,6.3
				c-1.8,0.6-7-2.8-8-4.9c-4-9.1-5.4-18.5-6.8-28c-0.8-5.7-0.8-11.6-0.8-17.3c0.2-4.1,2-7.9,2.2-12c0.2-3.5,3.6-4.3,6.6-5.1
				c0.8-2.2,0.2-4.3-0.2-6.5c-1.4-6.3-2-13-3.8-19.3c-0.6-2.6-1.8-5.9,3-6.3c0.8,0,1-1,1.4-1.8c1.8-4.3,4.2-5.3,9-3.9
				c7.4,2,14.4,4.5,19.2,12.2c0.2-2.4-1.2-3-2-3.9c-2.2-2.8-3.2-5.7-1.8-9.1c1.2-3.2,4.2-3.7,7.2-4.3c9.8-1.8,19.6-3.5,29.2-5.5
				c8.6-1.8,17.2-3.3,25.6-5.5c6.8-1.8,14-2.2,20.2-5.9c3-1.8,6-0.2,6.4,3.2c0.6,4.7,0.8,9.7,1.6,14.4c0.4,2.8-0.8,4.7-4.2,4.3
				c-4.4-0.4-8.6,0.8-12.8,1.8c-11.2,2.6-22.6,4.3-33.5,7.5c1.2,29.7,4.6,59.1-0.4,88.8c-2-1-4.4-0.6-6.4-2.2
				c-5.8-3.9-8.6-12.4-5.6-18.9c1.4-3.3,1.8-6.7,1.8-10.2c0.8-17.3-1-34.7-1.6-51.8c0-2.6-1-3.7-4-3c-4,1.2-8.2,1.4-12.2,3.2
				c-2,1-4.6,1-6.4-1c2.2,4.7,4,9.7,6.6,14.2c4.2,7.3,0.6,13.2-3.4,18.9C310.1,75.5,308.3,77.5,305.7,78.9z M304.5,52.3
				c0-4.7-0.8-5.7-7.2-8.1c-5-1.8-9.2,0.2-9.4,5.3c-0.2,5.9,2.6,11.6,2.8,17.9C297.9,64.1,302.5,59.5,304.5,52.3z M276.8,100.3
				c0,1.4,0.2,2.6,1.8,4.1c0-7.3-0.2-13.8,0-20.5c0-3-1.4-4.7-4.4-6.7C275.8,85.4,276,92.4,276.8,100.3z"/>
			<path d="M67.1,42.8c8,2.4,11.6,7.9,13.4,15.8c2.4,11,2.8,22.1,3,33.1c0,3-0.4,5.9-0.8,8.9c-0.2,1.2,0,2.4-1.6,2.6
				c-1.4,0.2-2.6,0.2-3.6-1c-2.8-2.8-3.8-6.5-3.8-10.2c-0.2-8.7,0.2-17.3-0.6-26c-0.4-4.7-3-6.3-7.6-4.1c-3.8,1.8-6.2,4.5-8,8.1
				c-3.4,6.3-6.2,12.6-6.2,20.1c0,3.5,1.4,5.7,4.2,7.7c6,4.3,13.2,6.1,19.8,9.5c7.8,3.9,15.6,7.7,21.6,14.4c4.4,4.7,8.2,22.7,4,27.4
				c-5,5.5-10.6,10.2-17.4,13.6c-6,3-12.2,4.9-19,6.3c-5.2,1-9.2-1-12.4-4.7c-1.2-1.4-2.4-3.2-3.8-4.3c-5-3.7-6.4-9.1-7-15
				c-0.6-7.5,2.6-16,7.8-19.5c2.4,3,4.8,5.7,7.2,8.7c1.2,1.6,0.2,3.3-0.4,4.7c-1.2,2.8-1.8,5.3-1.8,8.3c-0.2,3.2,1.4,4.1,4.2,3.9
				c12.2-0.8,23-4.7,31.7-13.4c3.2-3.2,2.8-6.3-1-8.9c-5-3.5-10.8-5.9-16.6-7.5c-16.4-4.9-26-16.9-31.3-31.7
				c-3-8.5-2.4-17.9,2.2-26.4c3.4-6.3,6.8-12.6,13-16.5C58.8,44.2,62.3,42.2,67.1,42.8z"/>
			<path d="M116.7,103.5c-0.6-11.8-1.2-23.2-1.8-34.9c0-1.4-0.2-2.6,0.2-3.7c0.6-2-0.6-5.1,3.2-5.3c3.6,0,6.4,2.4,6.8,5.3
				c1.2,9.5,2.8,18.9,3.6,28.4c0.8,12.2,0.8,24.2,0.6,36.4c-0.2,10-0.8,19.9-0.6,29.7c0.2,7.7-2.4,9.5-9.6,6.7
				c-6.6-2.4-11-6.7-12.4-14c-2.4-12.6-4.2-25.2-7-37.6c-3-13.8-3.8-27.8-4.4-42c-0.2-3.9-0.4-7.7-1-11.6c-0.4-2.2,0.4-3.7,1.6-5.3
				c2.4-3,5.4-2.8,6.2,1c1.2,5.1,6,8.9,5.8,14.6c-0.2,9.7,1.6,19.3,1.8,29c0.2,9.8,2.2,19.5,4,29.2c0.8,4.3-0.2,8.7,0.6,13
				c0.2,1.2-0.2,2.4,1.2,3.3C114.9,131.6,115.3,117.7,116.7,103.5z"/>
		</g>
	</g>
	<rect x="135.2" y="161.2" class="st0" width="175.7" height="55.2"/>
	<text transform="matrix(1.0135 0 0 1 135.2653 198.5175)" class="st1 st2">gallery</text>
	<rect x="230.5" y="69.4" class="st0" width="34.5" height="1"/>
	<rect x="176" y="86.7" class="st0" width="18.8" height="4.1"/>
</g>
</svg>
